<svg viewBox="0 0 24 24" class='h-6 w-6 mr-2' fill="none">
    <path fill-rule="evenodd" clip-rule="evenodd" d="M12.749 15.85h-3.41v2.196h2.603a.407.407 0 110 .814h-6.02a.407.407 0 110-.814h2.603v-2.197H2.912A1.912 1.912 0 011 13.937V6.412C1 5.356 1.856 4.5 2.912 4.5h12.04c1.057 0 1.912.856 1.912 1.912v1.88c-.279.062-.55.143-.813.244V6.412c0-.607-.492-1.098-1.098-1.098H2.912c-.607 0-1.098.491-1.098 1.098v7.525c0 .607.491 1.099 1.098 1.099h9.601c.059.279.138.55.236.813z" fill="currentColor"></path>
    <path d="M9.339 15.85v-.5a.5.5 0 00-.5.5h.5zm3.41 0v.5a.5.5 0 00.468-.676l-.468.175zm-3.41 2.196h-.5a.5.5 0 00.5.5v-.5zm-.814 0v.5a.5.5 0 00.5-.5h-.5zm0-2.197h.5a.5.5 0 00-.5-.5v.5zm8.34-7.556l.106.488a.5.5 0 00.393-.488h-.5zm-.814.243h-.5a.5.5 0 00.679.467l-.18-.467zm-7.124 6.5v.5h.003l-.003-.5zm.005 0l.004-.5h-.007l.003.5zm.006 0l-.003.5h.003v-.5zm3.575 0l.49-.103a.5.5 0 00-.49-.397v.5zm-3.174 1.313h3.41v-1h-3.41v1zm.5 1.697v-2.197h-1v2.197h1zm2.103-.5H9.34v1h2.603v-1zm.907.907c0-.501-.406-.907-.907-.907v1a.093.093 0 01-.093-.093h1zm-.907.907c.501 0 .907-.407.907-.907h-1c0-.052.042-.093.093-.093v1zm-6.02 0h6.02v-1h-6.02v1zm-.907-.907c0 .5.406.907.907.907v-1c.051 0 .093.041.093.093h-1zm.907-.907c-.5 0-.907.406-.907.907h1a.093.093 0 01-.093.093v-1zm2.603 0H5.922v1h2.603v-1zm-.5-1.697v2.197h1v-2.197h-1zm-5.113.5h5.613v-1H2.912v1zM.5 13.937a2.412 2.412 0 002.412 2.412v-1c-.78 0-1.412-.632-1.412-1.412h-1zm0-7.525v7.525h1V6.412h-1zM2.912 4A2.412 2.412 0 00.5 6.412h1C1.5 5.632 2.132 5 2.912 5V4zm12.04 0H2.913v1h12.04V4zm2.412 2.412A2.412 2.412 0 0014.954 4v1c.78 0 1.412.632 1.412 1.412h1zm0 1.88v-1.88h-1v1.88h1zm-1.134.71c.239-.09.486-.165.741-.22l-.213-.978a6.15 6.15 0 00-.886.265l.358.934zm.32-.466V6.412h-1v2.124h1zm0-2.124c0-.883-.715-1.598-1.597-1.598v1c.33 0 .598.267.598.598h1zm-1.597-1.598H2.912v1h12.04v-1zm-12.041 0c-.883 0-1.598.715-1.598 1.598h1c0-.33.267-.598.598-.598v-1zM1.314 6.412v7.525h1V6.412h-1zm0 7.525c0 .883.715 1.599 1.598 1.599v-1a.598.598 0 01-.598-.599h-1zm1.598 1.599h6.014v-1H2.913v1zm6.018 0h.006l-.007-1h-.006l.007 1zm-.001 0h.006l.006-1h-.005l-.007 1zm.009 0h3.575v-1H8.938v1zm4.28.138a5.163 5.163 0 01-.216-.741l-.978.206c.064.304.15.6.257.885l.936-.35z" fill="currentColor"></path>
    <path fill-rule="evenodd" clip-rule="evenodd" d="M19 11.75a2.5 2.5 0 100 5 2.5 2.5 0 000-5zm-4.5 2.5a4.5 4.5 0 119 0 4.5 4.5 0 01-9 0z" fill="currentColor"></path>
</svg>