<svg xmlns="http://www.w3.org/2000/svg" width="740.49" height="366.41" version="1.1" viewBox="0 0 740.49 366.41">
 <g>
  <path d="m373.93 137.86c10.364 0 18.802-8.4375 18.802-18.854 0-10.417-8.4376-18.802-18.802-18.802-10.417 0-18.854 8.3854-18.854 18.802 0 10.417 8.4375 18.854 18.854 18.854" fill="#202066"/>
  <path d="m359.82 187.03c-0.781-6.0417-2.9166-8.4375-7.6042-8.4375-5.052 0-10.208 4.7917-17.031 13.646-8.073 10.469-7.2396 12.865-10.886 12.865-1.4061 0-3.1249-1.9791-3.3853-4.0104-0.208-1.6146-0.156-2.8125 7.1874-12.865 14.115-19.688 27.708-29.375 39.688-29.375 10.833 0 17.812 6.0417 19.219 17.292 1.3541 10.469-1.6667 23.333-5.6251 40.26l-20.364 89.271c-1.8749 7.6563-2.6563 12.865-2.3437 15.312 0.677 5.2084 4.0104 8.8542 7.6562 8.8542 7.6042 0 14.896-8.0729 23.281-24.167 5.7814-11.25 7.5522-17.292 10.104-17.292 1.7709 0 2.6042 0.833 2.8646 2.8125 0.521 4.0104-3.3854 12.864-11.615 27.76-11.771 20.938-25.573 31.771-38.594 31.771-12.292 0-19.375-6.8229-21.094-20.521-1.5625-12.031 3.0208-32.552 10.677-62.76l12.24-48.229c3.9584-14.479 6.5625-24.948 5.625-32.188" fill="#202066"/>
  <path d="m445.7 277.55c-4.2187 18.073-6.5624 30.573-5.5208 38.594 1.7708 14.062 9.6354 21.719 23.073 21.719 11.562 0 31.354-12.083 47.604-37.812 21.354-33.802 29.063-66.354 26.406-86.875-1.9792-15.677-13.75-25.364-15.364-37.812-1.3543-10.469 2.8645-16.927 10.104-16.927 9.0625 0 16.51 10.104 18.854 28.177 3.698 28.542-3.2812 61.562-22.031 98.542-22.135 44.271-52.24 66.406-80.469 66.406-17.76 0-31.198-11.667-33.906-32.604-1.1974-9.2709-0.107-20.521 2.6562-32.604l18.386-82.031c1.5625-7.6563 2.7604-12.448 2.3437-15.677-0.625-4.8438-3.125-7.2396-6.4062-7.2396-5.4167 0-10.417 6.0417-17.656 17.292-5.7292 8.8541-4.2708 8.75-9.3229 8.75-1.4583 0-2.2916-0.833-2.6042-3.2292-0.416-3.2292 1.3542-5.9375 11.823-20.417 11.667-16.094 22.969-24.114 33.437-24.114 10.156 0 16.719 5.9895 18.229 17.656 0.885 6.875-1.2493 18.542-5.1562 35.833l-14.479 64.375" fill="#202066"/>
  <path d="m291.64 311.88c-15.052 25.104-18.333 24.323-29.636 38.49-11.406 14.271-23.021 19.01-30.781 14.271-5.6772-3.5417-6.9272-12.812 0.156-19.688 11.406-11.094 13.49 5.625 25.052-8.6459 10.99-13.49 17.604-30 21.875-43.906 11.146-36.667 11.406-68.385 9.2187-85.26-2.3438-18.49-12.031-28.958-24.375-28.958-23.125 0-48.281 32.552-71.667 98.125-16.25 45.052-13.906 68.802-23.333 68.802-2.9166 0-5.7292 0.417-8.6458 0.417-5.0522 0-7.7604-1.1979-8.4375-6.4584-0.208-1.6145 0.208-4.0104 0.573-6.8229l36.25-226.87c0.989-6.4583 1.4062-11.667 0.885-15.677-0.521-4.0104-4.5834-7.2396-10.729-7.2396-1.8228 0-3.5416 0.3645-5.7291 0.3645-4.3751 0-6.7188-1.5625-7.0313-4.0104-0.468-3.5938 2.5521-5.2083 9.1146-5.2083 27.135 0 37.865-12.083 42.604-12.083 1.0413 0 2.3437 1.6146 2.6041 3.6458 0.156 1.1979-0.364 2.8125-0.521 4.4271l-29.74 181.82c27.24-61.146 53.698-91.719 81.927-91.719 22.083 0 39.74 18.906 43.854 50.677 3.6458 28.125-2.6562 63.542-19.115 93.333l-4.3749 8.1771" fill="#202066"/>
  <path d="m28.566 145.63c-3.9062-45.417 27.604-75.521 78.385-73.333 30.885 1.25 51.302 11.771 52.24 22.708 0 0.4167 0.107 1.25 0.107 1.6667l-4.0104 35.469c-0.729 4.9479-1.6145 7.4479-5 7.2916-3.0208-0.104-8.802-3.125-9.2186-8.177-0.156-1.6667 0.05-3.75-0.26-7.1355-2.3959-27.76-12.344-41.719-39.792-42.865-30.885-1.3021-47.448 20.885-45 49.01 1.1974 13.906 7.8646 25.469 20.156 38.125l30.414 30.625c23.438 23.594 37.917 38.646 40.729 70.99 3.9063 45-32.604 82.396-83.802 80.26-16.927-0.729-35.729-5.6771-53.073-15.208-6.6667-3.6458-8.0208-6.1979-8.3853-10.833-0.107-1.25-0.208-2.0833-0.312-3.3854l-1.6667-36.51c-0.156-6.3021-0.469-10.052 3.6459-9.8959 6.4061 0.26 10.312 11.979 16.146 31.927 5.2604 16.979 21.354 33.333 46.562 34.375 32.76 1.4063 54.479-24.948 51.563-58.958-1.8229-21.042-14.323-35.365-33.281-55.052l-25.573-26.615c-18.906-19.219-29.062-37.24-30.573-54.479" fill="#202066"/>
 </g>
</svg>