<svg viewBox="0 0 24 24" class='h-6 w-6 mr-2' fill="none">
<path fill-rule="evenodd" clip-rule="evenodd" d="M7.85625 15.9409C8.41314 15.3469 9.18276 15 10 15H14C14.8172 15 15.5869 15.3469 16.1438 15.9409C16.6986 16.5327 17 17.3224 17 18.1333V18.4C17 18.9523 16.5523 19.4 16 19.4C15.4477 19.4 15 18.9523 15 18.4V18.1333C15 17.8127 14.88 17.5171 14.6847 17.3088C14.4914 17.1026 14.2436 17 14 17H10C9.75637 17 9.50858 17.1026 9.31532 17.3088C9.12002 17.5171 9 17.8127 9 18.1333V18.4C9 18.9523 8.55228 19.4 8 19.4C7.44772 19.4 7 18.9523 7 18.4V18.1333C7 17.3224 7.30141 16.5327 7.85625 15.9409Z" fill="currentColor"></path>
<path fill-rule="evenodd" clip-rule="evenodd" d="M11.9997 9C11.2265 9 10.5997 9.6268 10.5997 10.4C10.5997 11.1732 11.2265 11.8 11.9997 11.8C12.7729 11.8 13.3997 11.1732 13.3997 10.4C13.3997 9.6268 12.7729 9 11.9997 9ZM8.59972 10.4C8.59972 8.52223 10.122 7 11.9997 7C13.8775 7 15.3997 8.52223 15.3997 10.4C15.3997 12.2778 13.8775 13.8 11.9997 13.8C10.122 13.8 8.59972 12.2778 8.59972 10.4Z" fill="currentColor"></path><path fill-rule="evenodd" clip-rule="evenodd" d="M12 5C8.13401 5 5 8.13401 5 12C5 15.866 8.13401 19 12 19C15.866 19 19 15.866 19 12C19 8.13401 15.866 5 12 5ZM3 12C3 7.02944 7.02944 3 12 3C16.9706 3 21 7.02944 21 12C21 16.9706 16.9706 21 12 21C7.02944 21 3 16.9706 3 12Z" fill="currentColor"></path>
</svg>