<svg viewBox="0 0 24 24" class='h-6 w-6 mr-2' fill="none"><path fill-rule="evenodd" clip-rule="evenodd" d="M9.589 16.104a1 1 0 01.868-.504h3.086a1 1 0 01.868.504l2.057 3.6A1 1 0 0115.6 21.2H8.4a1 1 0 01-.868-1.496l2.057-3.6zm1.448 1.496l-.914 1.6h3.754l-.915-1.6h-1.925z" fill="currentColor"></path><path fill-rule="evenodd" clip-rule="evenodd" d="M2 6a3 3 0 013-3h14a3 3 0 013 3v8.6a3 3 0 01-3 3H5a3 3 0 01-3-3V6zm3-1a1 1 0 00-1 1v8.6a1 1 0 001 1h14a1 1 0 001-1V6a1 1 0 00-1-1H5z" fill="currentColor"></path><path fill-rule="evenodd" clip-rule="evenodd" d="M21 14H3v-2h18v2z" fill="currentColor"></path></svg>